<mxfile host="65bd71144e">
    <diagram id="Plc5_sqlQGXXUDPWIJur" name="Страница 1">
        <mxGraphModel dx="1582" dy="1905" grid="1" gridSize="10" guides="1" tooltips="1" connect="1" arrows="1" fold="1" page="1" pageScale="1" pageWidth="827" pageHeight="1169" math="0" shadow="0">
            <root>
                <mxCell id="0"/>
                <mxCell id="1" parent="0"/>
                <mxCell id="2" value="&lt;span style=&quot;color: rgb(44 , 45 , 48) ; font-family: &amp;#34;roboto&amp;#34; , &amp;#34;san francisco&amp;#34; , &amp;#34;helvetica neue&amp;#34; , &amp;#34;helvetica&amp;#34; , &amp;#34;arial&amp;#34; ; font-size: 15px ; background-color: rgb(255 , 255 , 255)&quot;&gt;Сформировать компоненты бизнес-логики (функциональные) необходимые для построения этих отчётов. Показать связь между компонентами интерфейса и компонентами бизнес-логики. На диаграмме или текстовым описанием.&lt;/span&gt;" style="text;html=1;strokeColor=none;fillColor=none;align=center;verticalAlign=middle;whiteSpace=wrap;rounded=0;" vertex="1" parent="1">
                    <mxGeometry x="-10" y="-1100" width="290" height="30" as="geometry"/>
                </mxCell>
                <mxCell id="18" value="Компания" style="swimlane;" vertex="1" parent="1">
                    <mxGeometry x="582.5" y="-1110" width="205" height="160" as="geometry"/>
                </mxCell>
                <mxCell id="19" value="id&lt;br&gt;Название&lt;br&gt;ИНН&amp;nbsp;&lt;br&gt;Адрес&lt;br&gt;Контакты&lt;br&gt;Логотип&lt;br&gt;Сайт&lt;br&gt;&lt;div&gt;&lt;span&gt;Директор&lt;/span&gt;&lt;/div&gt;" style="text;html=1;align=left;verticalAlign=middle;resizable=0;points=[];autosize=1;strokeColor=none;fillColor=none;" vertex="1" parent="18">
                    <mxGeometry x="10" y="30" width="70" height="120" as="geometry"/>
                </mxCell>
                <mxCell id="22" value="Товарные категории" style="swimlane;" vertex="1" parent="1">
                    <mxGeometry x="250" y="-1070" width="210" height="220" as="geometry"/>
                </mxCell>
                <mxCell id="23" value="id&lt;br&gt;категория&lt;br&gt;производитель&lt;br&gt;поставщик&lt;br&gt;цена покупки&lt;br&gt;цена продажи&lt;br&gt;тара&lt;br&gt;фасовка&lt;br&gt;объем&lt;br&gt;вес&lt;br&gt;срок годност&lt;br&gt;изображение" style="text;html=1;align=left;verticalAlign=middle;resizable=0;points=[];autosize=1;strokeColor=none;fillColor=none;" vertex="1" parent="22">
                    <mxGeometry x="10" y="35" width="100" height="170" as="geometry"/>
                </mxCell>
                <mxCell id="25" value="Табличный отчет" style="swimlane;" vertex="1" parent="1">
                    <mxGeometry x="260" y="-600" width="205" height="145" as="geometry"/>
                </mxCell>
                <mxCell id="26" value="id&lt;br&gt;вид отчета&lt;br&gt;категория&lt;br&gt;столбцы&lt;br&gt;строки&lt;br&gt;шапка&lt;br&gt;подписи" style="text;html=1;align=left;verticalAlign=middle;resizable=0;points=[];autosize=1;strokeColor=none;fillColor=none;" vertex="1" parent="25">
                    <mxGeometry x="10" y="35" width="80" height="100" as="geometry"/>
                </mxCell>
                <mxCell id="27" value="Графики и диаграмы" style="swimlane;" vertex="1" parent="1">
                    <mxGeometry y="-860" width="205" height="130" as="geometry"/>
                </mxCell>
                <mxCell id="28" value="id&lt;br&gt;вид графика(диаграммы)&lt;br&gt;разрешение&lt;br&gt;единицы измерения&lt;br&gt;оси&lt;br&gt;значения." style="text;html=1;align=left;verticalAlign=middle;resizable=0;points=[];autosize=1;strokeColor=none;fillColor=none;" vertex="1" parent="27">
                    <mxGeometry x="10" y="30" width="160" height="90" as="geometry"/>
                </mxCell>
                <mxCell id="29" value="Финансовые показатели" style="swimlane;" vertex="1" parent="1">
                    <mxGeometry x="555" y="-780" width="260" height="215" as="geometry"/>
                </mxCell>
                <mxCell id="30" value="&lt;div&gt;id&lt;/div&gt;&lt;div&gt;выручка&lt;/div&gt;&lt;div&gt;операционные расходы&lt;/div&gt;&lt;div&gt;EBITDA&lt;/div&gt;&lt;div&gt;прочие расходы,&lt;/div&gt;&lt;div&gt;&lt;span&gt;чистая прибыль&lt;/span&gt;&lt;/div&gt;&lt;div&gt;&lt;span&gt;рентабельность&lt;/span&gt;&lt;/div&gt;&lt;div&gt;&lt;span&gt;денежный поток&lt;/span&gt;&lt;/div&gt;&lt;div&gt;&lt;span&gt;количество дебиторской задолженности&lt;/span&gt;&lt;/div&gt;&lt;div&gt;&lt;span&gt;точка безубыточности&lt;/span&gt;&lt;/div&gt;&lt;div&gt;&lt;span&gt;средний чек.&lt;/span&gt;&lt;/div&gt;" style="text;html=1;align=left;verticalAlign=middle;resizable=0;points=[];autosize=1;strokeColor=none;fillColor=none;" vertex="1" parent="29">
                    <mxGeometry x="10" y="40" width="250" height="160" as="geometry"/>
                </mxCell>
                <mxCell id="50" value="" style="endArrow=classic;html=1;exitX=0;exitY=0.5;exitDx=0;exitDy=0;entryX=1;entryY=0.5;entryDx=0;entryDy=0;" edge="1" parent="1" source="29" target="25">
                    <mxGeometry width="50" height="50" relative="1" as="geometry">
                        <mxPoint x="490" y="-560" as="sourcePoint"/>
                        <mxPoint x="490" y="-672" as="targetPoint"/>
                    </mxGeometry>
                </mxCell>
                <mxCell id="52" value="" style="endArrow=classic;html=1;exitX=0;exitY=0.5;exitDx=0;exitDy=0;entryX=1;entryY=0.75;entryDx=0;entryDy=0;" edge="1" parent="1" source="25" target="27">
                    <mxGeometry width="50" height="50" relative="1" as="geometry">
                        <mxPoint x="490" y="-610" as="sourcePoint"/>
                        <mxPoint x="210" y="-690" as="targetPoint"/>
                    </mxGeometry>
                </mxCell>
                <mxCell id="54" value="" style="endArrow=classic;html=1;entryX=1;entryY=0.5;entryDx=0;entryDy=0;" edge="1" parent="1" target="22">
                    <mxGeometry width="50" height="50" relative="1" as="geometry">
                        <mxPoint x="583" y="-1010" as="sourcePoint"/>
                        <mxPoint x="540" y="-960" as="targetPoint"/>
                    </mxGeometry>
                </mxCell>
                <mxCell id="56" value="" style="endArrow=classic;html=1;exitX=0.5;exitY=1;exitDx=0;exitDy=0;" edge="1" parent="1" source="22">
                    <mxGeometry width="50" height="50" relative="1" as="geometry">
                        <mxPoint x="465" y="-902.5" as="sourcePoint"/>
                        <mxPoint x="355" y="-600" as="targetPoint"/>
                    </mxGeometry>
                </mxCell>
                <mxCell id="57" value="" style="endArrow=classic;html=1;exitX=0.5;exitY=1;exitDx=0;exitDy=0;entryX=0.5;entryY=0;entryDx=0;entryDy=0;" edge="1" parent="1" source="18" target="29">
                    <mxGeometry width="50" height="50" relative="1" as="geometry">
                        <mxPoint x="470" y="-950" as="sourcePoint"/>
                        <mxPoint x="510" y="-1010" as="targetPoint"/>
                    </mxGeometry>
                </mxCell>
                <mxCell id="58" value="Формируются табличные отчеты по фин показателям компании" style="text;html=1;strokeColor=none;fillColor=none;align=center;verticalAlign=middle;whiteSpace=wrap;rounded=0;" vertex="1" parent="1">
                    <mxGeometry x="440" y="-650" width="90" height="30" as="geometry"/>
                </mxCell>
                <mxCell id="61" value="В отчеты включаются выбранные товарные категории компании" style="text;html=1;strokeColor=none;fillColor=none;align=center;verticalAlign=middle;whiteSpace=wrap;rounded=0;" vertex="1" parent="1">
                    <mxGeometry x="360" y="-820" width="70" height="140" as="geometry"/>
                </mxCell>
                <mxCell id="62" value="На основе табличных отчетов рисуются выбранные&amp;nbsp; графики и диаграммы по товарным категориям и/или фин показателям" style="text;html=1;strokeColor=none;fillColor=none;align=center;verticalAlign=middle;whiteSpace=wrap;rounded=0;" vertex="1" parent="1">
                    <mxGeometry x="160" y="-650" width="60" height="30" as="geometry"/>
                </mxCell>
                <mxCell id="64" value="Для выбранных компаний заполняется информация по товарным категориям" style="text;html=1;strokeColor=none;fillColor=none;align=center;verticalAlign=middle;whiteSpace=wrap;rounded=0;" vertex="1" parent="1">
                    <mxGeometry x="490" y="-1070" width="60" height="30" as="geometry"/>
                </mxCell>
                <mxCell id="66" value="Считаются фин показатели по компании" style="text;html=1;strokeColor=none;fillColor=none;align=center;verticalAlign=middle;whiteSpace=wrap;rounded=0;" vertex="1" parent="1">
                    <mxGeometry x="620" y="-880" width="60" height="30" as="geometry"/>
                </mxCell>
            </root>
        </mxGraphModel>
    </diagram>
</mxfile>